<mxfile host="65bd71144e" scale="1" border="0" disableSvgWarning="true">
    <diagram id="KvN9TWe3ZIlMZbq5MWyr" name="Page-1">
        <mxGraphModel dx="535" dy="330" grid="1" gridSize="16" guides="1" tooltips="1" connect="1" arrows="1" fold="1" page="1" pageScale="1" pageWidth="827" pageHeight="1169" math="0" shadow="0">
            <root>
                <mxCell id="0"/>
                <mxCell id="1" parent="0"/>
                <mxCell id="93" value="" style="group;fontFamily=Courier New;fontSize=16;verticalAlign=middle;strokeColor=none;spacingLeft=4;spacingRight=4;fontStyle=1;fontColor=#000000;labelBackgroundColor=none;" parent="1" vertex="1" connectable="0">
                    <mxGeometry x="35" y="80" width="757" height="990" as="geometry"/>
                </mxCell>
                <mxCell id="5" value="__ipipe_init" style="rounded=0;whiteSpace=wrap;html=1;fontFamily=Courier New;fontSize=16;fontStyle=1;container=0;fillColor=#1ba1e2;fontColor=#000000;strokeColor=#006EAF;labelBackgroundColor=none;" parent="93" vertex="1">
                    <mxGeometry x="40" y="720" width="155" height="30" as="geometry"/>
                </mxCell>
                <mxCell id="6" value="local_irq_enable" style="rounded=0;whiteSpace=wrap;html=1;fontFamily=Courier New;fontSize=16;fontStyle=1;container=0;fillColor=#1ba1e2;fontColor=#000000;strokeColor=#006EAF;labelBackgroundColor=none;" parent="93" vertex="1">
                    <mxGeometry x="40" y="960" width="182.5" height="30" as="geometry"/>
                </mxCell>
                <mxCell id="61" value="hook_internal_ipi" style="rounded=0;whiteSpace=wrap;html=1;sketch=0;fontFamily=Courier New;fontSize=16;fillColor=#1ba1e2;fontStyle=1;container=0;fontColor=#000000;strokeColor=#006EAF;labelBackgroundColor=none;" parent="93" vertex="1">
                    <mxGeometry x="200" y="580" width="200" height="30" as="geometry"/>
                </mxCell>
                <mxCell id="63" style="edgeStyle=none;html=1;exitX=0;exitY=1;exitDx=0;exitDy=0;entryX=0;entryY=0.5;entryDx=0;entryDy=0;fontFamily=Courier New;fontSize=16;fontStyle=1;fontColor=#000000;labelBackgroundColor=none;" parent="93" source="55" target="61" edge="1">
                    <mxGeometry relative="1" as="geometry">
                        <Array as="points">
                            <mxPoint x="160" y="595"/>
                        </Array>
                    </mxGeometry>
                </mxCell>
                <mxCell id="67" style="edgeStyle=none;html=1;exitX=0;exitY=0.5;exitDx=0;exitDy=0;entryX=1;entryY=0.5;entryDx=0;entryDy=0;fontFamily=Courier New;fontSize=16;fontStyle=1;fontColor=#000000;labelBackgroundColor=none;" parent="93" source="64" target="61" edge="1">
                    <mxGeometry relative="1" as="geometry"/>
                </mxCell>
                <mxCell id="68" value="在 Linux domain 中注册并绑定了&#10;printk 和 work 两个 virq" style="text;strokeColor=none;fillColor=#B3AFB5;align=center;verticalAlign=middle;spacingLeft=4;spacingRight=4;overflow=hidden;rotatable=0;points=[[0,0.5],[1,0.5]];portConstraint=eastwest;fontFamily=Courier New;fontSize=16;textDirection=ltr;fontStyle=1;rounded=1;fontColor=#000000;labelBackgroundColor=none;" parent="93" vertex="1">
                    <mxGeometry x="80" y="640" width="310" height="50" as="geometry"/>
                </mxCell>
                <mxCell id="69" style="edgeStyle=none;html=1;exitX=0;exitY=1;exitDx=0;exitDy=0;entryX=0;entryY=0.5;entryDx=0;entryDy=0;fontFamily=Courier New;fontSize=16;fontStyle=1;fontColor=#000000;labelBackgroundColor=none;" parent="93" source="44" target="68" edge="1">
                    <mxGeometry relative="1" as="geometry">
                        <Array as="points">
                            <mxPoint x="40" y="665"/>
                        </Array>
                    </mxGeometry>
                </mxCell>
                <mxCell id="70" value="__ipipe_enable_pipeline" style="rounded=0;whiteSpace=wrap;html=1;fontFamily=Courier New;fontSize=16;fontStyle=1;container=0;fillColor=#1ba1e2;fontColor=#000000;strokeColor=#006EAF;labelBackgroundColor=none;" parent="93" vertex="1">
                    <mxGeometry x="80" y="780" width="250" height="30" as="geometry"/>
                </mxCell>
                <mxCell id="71" style="edgeStyle=none;html=1;exitX=0;exitY=1;exitDx=0;exitDy=0;entryX=0;entryY=0.5;entryDx=0;entryDy=0;fontFamily=Courier New;fontSize=16;fontStyle=1;fontColor=#000000;labelBackgroundColor=none;" parent="93" source="5" target="70" edge="1">
                    <mxGeometry relative="1" as="geometry">
                        <Array as="points">
                            <mxPoint x="40" y="795"/>
                        </Array>
                    </mxGeometry>
                </mxCell>
                <mxCell id="75" style="edgeStyle=none;html=1;exitX=0;exitY=1;exitDx=0;exitDy=0;entryX=0;entryY=0.5;entryDx=0;entryDy=0;fontFamily=Courier New;fontSize=16;fontStyle=1;fontColor=#000000;labelBackgroundColor=none;" parent="93" source="45" target="5" edge="1">
                    <mxGeometry relative="1" as="geometry">
                        <Array as="points">
                            <mxPoint y="735"/>
                        </Array>
                    </mxGeometry>
                </mxCell>
                <mxCell id="76" style="edgeStyle=none;html=1;exitX=0;exitY=1;exitDx=0;exitDy=0;entryX=0;entryY=0.5;entryDx=0;entryDy=0;fontFamily=Courier New;fontSize=16;fontStyle=1;fontColor=#000000;labelBackgroundColor=none;" parent="93" source="45" target="6" edge="1">
                    <mxGeometry relative="1" as="geometry">
                        <Array as="points">
                            <mxPoint y="975"/>
                        </Array>
                    </mxGeometry>
                </mxCell>
                <mxCell id="77" value="ipipe_request_irq" style="rounded=0;whiteSpace=wrap;html=1;sketch=0;fontFamily=Courier New;fontSize=16;fillColor=#1ba1e2;fontStyle=1;container=0;fontColor=#000000;strokeColor=#006EAF;labelBackgroundColor=none;" parent="93" vertex="1">
                    <mxGeometry x="120" y="840" width="200" height="30" as="geometry"/>
                </mxCell>
                <mxCell id="78" style="edgeStyle=none;html=1;exitX=0;exitY=1;exitDx=0;exitDy=0;entryX=0;entryY=0.5;entryDx=0;entryDy=0;fontFamily=Courier New;fontSize=16;fontStyle=1;fontColor=#000000;labelBackgroundColor=none;" parent="93" source="70" target="77" edge="1">
                    <mxGeometry relative="1" as="geometry">
                        <Array as="points">
                            <mxPoint x="80" y="855"/>
                        </Array>
                    </mxGeometry>
                </mxCell>
                <mxCell id="79" value="__ipipe_ipis_request" style="rounded=0;whiteSpace=wrap;html=1;sketch=0;fontFamily=Courier New;fontSize=16;fillColor=#1ba1e2;fontStyle=1;container=0;fontColor=#000000;strokeColor=#006EAF;labelBackgroundColor=none;" parent="93" vertex="1">
                    <mxGeometry x="120" y="900" width="210" height="30" as="geometry"/>
                </mxCell>
                <mxCell id="80" style="edgeStyle=none;html=1;exitX=0;exitY=1;exitDx=0;exitDy=0;entryX=0;entryY=0.5;entryDx=0;entryDy=0;fontFamily=Courier New;fontSize=16;fontStyle=1;fontColor=#000000;labelBackgroundColor=none;" parent="93" source="70" target="79" edge="1">
                    <mxGeometry relative="1" as="geometry">
                        <Array as="points">
                            <mxPoint x="80" y="915"/>
                        </Array>
                    </mxGeometry>
                </mxCell>
                <mxCell id="82" style="edgeStyle=none;html=1;exitX=0;exitY=0.5;exitDx=0;exitDy=0;entryX=1;entryY=0.5;entryDx=0;entryDy=0;fontFamily=Courier New;fontSize=16;fontStyle=1;fontColor=#000000;labelBackgroundColor=none;" parent="93" source="81" target="77" edge="1">
                    <mxGeometry relative="1" as="geometry"/>
                </mxCell>
                <mxCell id="81" value="绑定 Linux domain 中的全&#10;部 root irq 的handler" style="text;strokeColor=none;fillColor=#B3AFB5;align=center;verticalAlign=middle;spacingLeft=4;spacingRight=4;overflow=hidden;rotatable=0;points=[[0,0.5],[1,0.5]];portConstraint=eastwest;fontFamily=Courier New;fontSize=16;textDirection=ltr;fontStyle=1;rounded=1;fontColor=#000000;labelBackgroundColor=none;" parent="93" vertex="1">
                    <mxGeometry x="360" y="829.38" width="230" height="51.25" as="geometry"/>
                </mxCell>
                <mxCell id="84" style="edgeStyle=none;html=1;exitX=0;exitY=0.5;exitDx=0;exitDy=0;entryX=1;entryY=0.5;entryDx=0;entryDy=0;fontFamily=Courier New;fontSize=16;fontStyle=1;fontColor=#000000;labelBackgroundColor=none;" parent="93" source="83" target="79" edge="1">
                    <mxGeometry relative="1" as="geometry"/>
                </mxCell>
                <mxCell id="83" value="绑定 Linux domain 中的全部 ipi irq 的&#10;handler，即 __ipipe_ipis_alloc 涉及的&#10;范围" style="text;strokeColor=none;fillColor=#B3AFB5;align=center;verticalAlign=middle;spacingLeft=4;spacingRight=4;overflow=hidden;rotatable=0;points=[[0,0.5],[1,0.5]];portConstraint=eastwest;fontFamily=Courier New;fontSize=16;textDirection=ltr;fontStyle=1;rounded=1;fontColor=#000000;labelBackgroundColor=none;" parent="93" vertex="1">
                    <mxGeometry x="360" y="890" width="357" height="70" as="geometry"/>
                </mxCell>
                <mxCell id="28" value="memset" style="text;html=1;align=center;verticalAlign=middle;resizable=0;points=[];autosize=1;strokeColor=none;fillColor=none;fontSize=16;fontFamily=Courier New;fontStyle=1;container=0;fontColor=#000000;labelBackgroundColor=none;" parent="93" vertex="1">
                    <mxGeometry x="299" y="195" width="80" height="30" as="geometry"/>
                </mxCell>
                <mxCell id="31" value="mutex_init" style="text;html=1;align=center;verticalAlign=middle;resizable=0;points=[];autosize=1;strokeColor=none;fillColor=none;fontSize=16;fontFamily=Courier New;fontStyle=1;container=0;fontColor=#000000;labelBackgroundColor=none;" parent="93" vertex="1">
                    <mxGeometry x="299" y="345" width="120" height="30" as="geometry"/>
                </mxCell>
                <mxCell id="34" value="name = &quot;Linux&quot;" style="text;html=1;align=center;verticalAlign=middle;resizable=0;points=[];autosize=1;strokeColor=none;fillColor=none;fontSize=16;fontFamily=Courier New;fontStyle=1;container=0;fontColor=#000000;labelBackgroundColor=none;" parent="93" vertex="1">
                    <mxGeometry x="299" y="305" width="160" height="30" as="geometry"/>
                </mxCell>
                <mxCell id="36" value="root_context_offset" style="text;html=1;align=center;verticalAlign=middle;resizable=0;points=[];autosize=1;strokeColor=none;fillColor=none;fontSize=16;fontFamily=Courier New;fontStyle=1;container=0;fontColor=#000000;labelBackgroundColor=none;" parent="93" vertex="1">
                    <mxGeometry x="299" y="85" width="210" height="30" as="geometry"/>
                </mxCell>
                <mxCell id="49" value="__ipipe_hook_critical_ipi" style="rounded=0;whiteSpace=wrap;html=1;sketch=0;fontFamily=Courier New;fontSize=16;fillColor=#1ba1e2;fontStyle=1;container=0;fontColor=#000000;strokeColor=#006EAF;labelBackgroundColor=none;" parent="93" vertex="1">
                    <mxGeometry x="120" y="400" width="265" height="30" as="geometry"/>
                </mxCell>
                <mxCell id="54" style="edgeStyle=none;html=1;exitX=0;exitY=1;exitDx=0;exitDy=0;entryX=0;entryY=0.5;entryDx=0;entryDy=0;fontFamily=Courier New;fontSize=16;fontStyle=1;fontColor=#000000;labelBackgroundColor=none;" parent="93" source="46" target="49" edge="1">
                    <mxGeometry relative="1" as="geometry">
                        <Array as="points">
                            <mxPoint x="80" y="415"/>
                        </Array>
                    </mxGeometry>
                </mxCell>
                <mxCell id="55" value="__ipipe_ipis_alloc" style="rounded=0;whiteSpace=wrap;html=1;sketch=0;fontFamily=Courier New;fontSize=16;fillColor=#1ba1e2;fontStyle=1;container=0;fontColor=#000000;strokeColor=#006EAF;labelBackgroundColor=none;" parent="93" vertex="1">
                    <mxGeometry x="160" y="460" width="200" height="30" as="geometry"/>
                </mxCell>
                <mxCell id="57" style="edgeStyle=none;html=1;exitX=0;exitY=1;exitDx=0;exitDy=0;entryX=0;entryY=0.5;entryDx=0;entryDy=0;fontFamily=Courier New;fontSize=16;fontStyle=1;fontColor=#000000;labelBackgroundColor=none;" parent="93" source="49" target="55" edge="1">
                    <mxGeometry relative="1" as="geometry">
                        <Array as="points">
                            <mxPoint x="120" y="475"/>
                        </Array>
                    </mxGeometry>
                </mxCell>
                <mxCell id="59" style="edgeStyle=none;html=1;exitX=0;exitY=0.5;exitDx=0;exitDy=0;entryX=1;entryY=0.5;entryDx=0;entryDy=0;fontFamily=Courier New;fontSize=16;fontStyle=1;fontColor=#000000;labelBackgroundColor=none;" parent="93" source="58" target="55" edge="1">
                    <mxGeometry relative="1" as="geometry"/>
                </mxCell>
                <mxCell id="58" value="申请 IPIPE_IPI_BASE ~&#10;IPIPE_IPI_BASE + NR_IPI +&#10;IPIPE_OOB_IPI_NR 所有 ipipe&#10;virq 号" style="text;strokeColor=none;fillColor=#B3AFB5;align=center;verticalAlign=middle;spacingLeft=4;spacingRight=4;overflow=hidden;rotatable=0;points=[[0,0.5],[1,0.5]];portConstraint=eastwest;fontFamily=Courier New;fontSize=16;textDirection=ltr;fontStyle=1;rounded=1;fontColor=#000000;labelBackgroundColor=none;" parent="93" vertex="1">
                    <mxGeometry x="445" y="432.5" width="275" height="85" as="geometry"/>
                </mxCell>
                <mxCell id="60" value="hook_internal_ipi" style="rounded=0;whiteSpace=wrap;html=1;sketch=0;fontFamily=Courier New;fontSize=16;fillColor=#1ba1e2;fontStyle=1;container=0;fontColor=#000000;strokeColor=#006EAF;labelBackgroundColor=none;" parent="93" vertex="1">
                    <mxGeometry x="200" y="520" width="200" height="30" as="geometry"/>
                </mxCell>
                <mxCell id="62" style="edgeStyle=none;html=1;exitX=0;exitY=1;exitDx=0;exitDy=0;entryX=0;entryY=0.5;entryDx=0;entryDy=0;fontFamily=Courier New;fontSize=16;fontStyle=1;fontColor=#000000;labelBackgroundColor=none;" parent="93" source="55" target="60" edge="1">
                    <mxGeometry relative="1" as="geometry">
                        <Array as="points">
                            <mxPoint x="160" y="535"/>
                        </Array>
                    </mxGeometry>
                </mxCell>
                <mxCell id="65" style="edgeStyle=none;html=1;exitX=0;exitY=0.5;exitDx=0;exitDy=0;entryX=1;entryY=0.5;entryDx=0;entryDy=0;fontFamily=Courier New;fontSize=16;fontStyle=1;fontColor=#000000;labelBackgroundColor=none;" parent="93" source="64" target="60" edge="1">
                    <mxGeometry relative="1" as="geometry"/>
                </mxCell>
                <mxCell id="64" value="绑定 Linux domain 中&#10;CRITICAL_IPI 和&#10;SERVICE_VNMI 的 handler" style="text;strokeColor=none;fillColor=#B3AFB5;align=center;verticalAlign=middle;spacingLeft=4;spacingRight=4;overflow=hidden;rotatable=0;points=[[0,0.5],[1,0.5]];portConstraint=eastwest;fontFamily=Courier New;fontSize=16;textDirection=ltr;fontStyle=1;rounded=1;fontColor=#000000;labelBackgroundColor=none;" parent="93" vertex="1">
                    <mxGeometry x="445" y="530" width="275" height="70" as="geometry"/>
                </mxCell>
                <mxCell id="37" style="edgeStyle=none;html=1;exitX=1;exitY=0.5;exitDx=0;exitDy=0;entryX=0;entryY=0.5;entryDx=0;entryDy=0;fontFamily=Courier New;fontSize=16;startArrow=none;fontStyle=1;fontColor=#000000;labelBackgroundColor=none;" parent="93" source="36" target="15" edge="1">
                    <mxGeometry relative="1" as="geometry"/>
                </mxCell>
                <mxCell id="88" style="edgeStyle=none;html=1;exitX=1;exitY=0.5;exitDx=0;exitDy=0;entryX=1;entryY=0.5;entryDx=0;entryDy=0;fontStyle=1;fontColor=#000000;labelBackgroundColor=none;" parent="93" edge="1">
                    <mxGeometry relative="1" as="geometry">
                        <Array as="points">
                            <mxPoint x="757" y="665"/>
                            <mxPoint x="757" y="210"/>
                        </Array>
                        <mxPoint x="389" y="665" as="sourcePoint"/>
                        <mxPoint x="726" y="210" as="targetPoint"/>
                    </mxGeometry>
                </mxCell>
                <mxCell id="90" style="edgeStyle=none;html=1;exitX=1;exitY=0.5;exitDx=0;exitDy=0;entryX=1;entryY=0.5;entryDx=0;entryDy=0;fontStyle=1;fontColor=#000000;labelBackgroundColor=none;" parent="93" edge="1">
                    <mxGeometry relative="1" as="geometry">
                        <Array as="points">
                            <mxPoint x="757" y="855"/>
                            <mxPoint x="757" y="210"/>
                        </Array>
                        <mxPoint x="589" y="855.0050000000006" as="sourcePoint"/>
                        <mxPoint x="726" y="210" as="targetPoint"/>
                    </mxGeometry>
                </mxCell>
                <mxCell id="91" style="edgeStyle=none;html=1;exitX=1;exitY=0.5;exitDx=0;exitDy=0;entryX=1;entryY=0.5;entryDx=0;entryDy=0;fontStyle=1;fontColor=#000000;labelBackgroundColor=none;" parent="93" edge="1">
                    <mxGeometry relative="1" as="geometry">
                        <mxPoint x="726" y="210" as="targetPoint"/>
                        <Array as="points">
                            <mxPoint x="757" y="915"/>
                            <mxPoint x="757" y="210"/>
                        </Array>
                        <mxPoint x="716" y="915.6300000000006" as="sourcePoint"/>
                    </mxGeometry>
                </mxCell>
                <mxCell id="27" style="edgeStyle=none;html=1;exitX=1;exitY=0.5;exitDx=0;exitDy=0;entryX=0;entryY=0.5;entryDx=0;entryDy=0;fontFamily=Courier New;fontSize=16;startArrow=none;fontStyle=1;fontColor=#000000;labelBackgroundColor=none;" parent="93" source="28" target="17" edge="1">
                    <mxGeometry relative="1" as="geometry"/>
                </mxCell>
                <mxCell id="89" style="edgeStyle=none;html=1;exitX=1;exitY=0.5;exitDx=0;exitDy=0;entryX=1;entryY=0.5;entryDx=0;entryDy=0;fontStyle=1;fontColor=#000000;labelBackgroundColor=none;" parent="93" edge="1">
                    <mxGeometry relative="1" as="geometry">
                        <Array as="points">
                            <mxPoint x="757" y="560"/>
                            <mxPoint x="757" y="210"/>
                        </Array>
                        <mxPoint x="719" y="560" as="sourcePoint"/>
                        <mxPoint x="726" y="210" as="targetPoint"/>
                    </mxGeometry>
                </mxCell>
                <mxCell id="33" style="edgeStyle=none;html=1;exitX=1;exitY=0.5;exitDx=0;exitDy=0;entryX=0;entryY=0.5;entryDx=0;entryDy=0;fontFamily=Courier New;fontSize=16;startArrow=none;fontStyle=1;fontColor=#000000;labelBackgroundColor=none;" parent="93" source="34" target="18" edge="1">
                    <mxGeometry relative="1" as="geometry"/>
                </mxCell>
                <mxCell id="30" style="edgeStyle=none;html=1;exitX=1;exitY=0.5;exitDx=0;exitDy=0;entryX=0;entryY=0.5;entryDx=0;entryDy=0;fontFamily=Courier New;fontSize=16;startArrow=none;fontStyle=1;fontColor=#000000;labelBackgroundColor=none;" parent="93" source="31" target="20" edge="1">
                    <mxGeometry relative="1" as="geometry"/>
                </mxCell>
                <mxCell id="35" value="" style="edgeStyle=none;html=1;exitX=1;exitY=0.5;exitDx=0;exitDy=0;entryX=0;entryY=0.5;entryDx=0;entryDy=0;fontFamily=Courier New;fontSize=16;endArrow=none;fontStyle=1;fontColor=#000000;labelBackgroundColor=none;" parent="93" source="4" target="34" edge="1">
                    <mxGeometry relative="1" as="geometry">
                        <mxPoint x="280" y="165" as="sourcePoint"/>
                        <mxPoint x="650" y="320" as="targetPoint"/>
                    </mxGeometry>
                </mxCell>
                <mxCell id="38" value="" style="edgeStyle=none;html=1;exitX=1;exitY=0.5;exitDx=0;exitDy=0;entryX=0;entryY=0.5;entryDx=0;entryDy=0;fontFamily=Courier New;fontSize=16;endArrow=none;fontStyle=1;fontColor=#000000;labelBackgroundColor=none;" parent="93" source="4" target="36" edge="1">
                    <mxGeometry relative="1" as="geometry">
                        <mxPoint x="280" y="165" as="sourcePoint"/>
                        <mxPoint x="650" y="100" as="targetPoint"/>
                    </mxGeometry>
                </mxCell>
                <mxCell id="29" value="" style="edgeStyle=none;html=1;exitX=1;exitY=0.5;exitDx=0;exitDy=0;entryX=0;entryY=0.5;entryDx=0;entryDy=0;fontFamily=Courier New;fontSize=16;endArrow=none;fontStyle=1;fontColor=#000000;labelBackgroundColor=none;" parent="93" source="46" target="28" edge="1">
                    <mxGeometry relative="1" as="geometry">
                        <mxPoint x="310" y="225" as="sourcePoint"/>
                        <mxPoint x="650.0000000000002" y="210" as="targetPoint"/>
                    </mxGeometry>
                </mxCell>
                <mxCell id="32" value="" style="edgeStyle=none;html=1;exitX=1;exitY=0.5;exitDx=0;exitDy=0;entryX=0;entryY=0.5;entryDx=0;entryDy=0;fontFamily=Courier New;fontSize=16;endArrow=none;fontStyle=1;fontColor=#000000;labelBackgroundColor=none;" parent="93" source="46" target="31" edge="1">
                    <mxGeometry relative="1" as="geometry">
                        <mxPoint x="310" y="225" as="sourcePoint"/>
                        <mxPoint x="650" y="360" as="targetPoint"/>
                    </mxGeometry>
                </mxCell>
                <mxCell id="13" value="ipipe_domain" style="rounded=0;whiteSpace=wrap;html=1;sketch=0;fontFamily=Courier New;fontSize=16;fillColor=#fff2cc;fontStyle=1;container=0;strokeColor=#d6b656;fontColor=#000000;labelBackgroundColor=none;" parent="93" vertex="1">
                    <mxGeometry x="533" y="50" width="130" height="30" as="geometry"/>
                </mxCell>
                <mxCell id="15" value="int context_offset" style="rounded=0;whiteSpace=wrap;html=1;sketch=0;fontFamily=Courier New;fontSize=16;fillColor=#fff2cc;fontStyle=1;container=0;strokeColor=#d6b656;fontColor=#000000;labelBackgroundColor=none;" parent="93" vertex="1">
                    <mxGeometry x="533" y="80" width="194" height="40" as="geometry"/>
                </mxCell>
                <mxCell id="17" value="struct&#10;ipipe_irqdesc&#10;irqs[]" style="text;strokeColor=#d6b656;fillColor=#fff2cc;align=center;verticalAlign=middle;spacingLeft=4;spacingRight=4;overflow=hidden;rotatable=0;points=[[0,0.5],[1,0.5]];portConstraint=eastwest;fontFamily=Courier New;fontSize=16;textDirection=ltr;fontStyle=1;fontColor=#000000;labelBackgroundColor=none;" parent="93" vertex="1">
                    <mxGeometry x="533" y="120" width="194" height="180" as="geometry"/>
                </mxCell>
                <mxCell id="18" value="const char *name" style="rounded=0;whiteSpace=wrap;html=1;sketch=0;fontFamily=Courier New;fontSize=16;fillColor=#fff2cc;fontStyle=1;container=0;strokeColor=#d6b656;fontColor=#000000;labelBackgroundColor=none;" parent="93" vertex="1">
                    <mxGeometry x="533" y="300" width="194" height="40" as="geometry"/>
                </mxCell>
                <mxCell id="20" value="struct mutex mutex" style="rounded=0;whiteSpace=wrap;html=1;sketch=0;fontFamily=Courier New;fontSize=16;fillColor=#fff2cc;fontStyle=1;container=0;strokeColor=#d6b656;fontColor=#000000;labelBackgroundColor=none;" parent="93" vertex="1">
                    <mxGeometry x="533" y="340" width="194" height="40" as="geometry"/>
                </mxCell>
                <mxCell id="2" value="start_kernel" style="rounded=0;whiteSpace=wrap;html=1;fontFamily=Courier New;fontSize=16;fontStyle=1;container=0;fontColor=#000000;labelBackgroundColor=none;" parent="93" vertex="1">
                    <mxGeometry x="40" y="50" width="170" height="30" as="geometry"/>
                </mxCell>
                <mxCell id="3" value="hard_local_irq_disable" style="rounded=0;whiteSpace=wrap;html=1;fontFamily=Courier New;fontSize=16;fontStyle=1;container=0;fontColor=#000000;labelBackgroundColor=none;" parent="93" vertex="1">
                    <mxGeometry x="40" y="100" width="240" height="30" as="geometry"/>
                </mxCell>
                <mxCell id="4" value="__ipipe_init_early" style="rounded=0;whiteSpace=wrap;html=1;fontFamily=Courier New;fontSize=16;fontStyle=1;container=0;fontColor=#000000;labelBackgroundColor=none;" parent="93" vertex="1">
                    <mxGeometry x="40" y="150" width="240" height="30" as="geometry"/>
                </mxCell>
                <mxCell id="45" value="pid 0" style="rounded=0;whiteSpace=wrap;html=1;sketch=0;fontFamily=Courier New;fontSize=16;fillColor=default;fontStyle=1;container=0;fontColor=#000000;labelBackgroundColor=none;" parent="93" vertex="1">
                    <mxGeometry width="120" height="30" as="geometry"/>
                </mxCell>
                <mxCell id="41" value="start_kernel" style="rounded=0;whiteSpace=wrap;html=1;fontFamily=Courier New;fontSize=16;fontStyle=1;container=0;fillColor=#1ba1e2;fontColor=#000000;strokeColor=#006EAF;labelBackgroundColor=none;" parent="93" vertex="1">
                    <mxGeometry x="40" y="50" width="170" height="30" as="geometry"/>
                </mxCell>
                <mxCell id="72" style="edgeStyle=none;html=1;exitX=0;exitY=1;exitDx=0;exitDy=0;entryX=0;entryY=0.5;entryDx=0;entryDy=0;fontFamily=Courier New;fontSize=16;fontStyle=1;fontColor=#000000;labelBackgroundColor=none;" parent="93" source="45" target="41" edge="1">
                    <mxGeometry relative="1" as="geometry">
                        <Array as="points">
                            <mxPoint y="65"/>
                        </Array>
                    </mxGeometry>
                </mxCell>
                <mxCell id="42" value="hard_local_irq_disable" style="rounded=0;whiteSpace=wrap;html=1;fontFamily=Courier New;fontSize=16;fontStyle=1;container=0;fillColor=#1ba1e2;fontColor=#000000;strokeColor=#006EAF;labelBackgroundColor=none;" parent="93" vertex="1">
                    <mxGeometry x="40" y="100" width="240" height="30" as="geometry"/>
                </mxCell>
                <mxCell id="73" style="edgeStyle=none;html=1;exitX=0;exitY=1;exitDx=0;exitDy=0;entryX=0;entryY=0.5;entryDx=0;entryDy=0;fontFamily=Courier New;fontSize=16;fontStyle=1;fontColor=#000000;labelBackgroundColor=none;" parent="93" source="45" target="42" edge="1">
                    <mxGeometry relative="1" as="geometry">
                        <Array as="points">
                            <mxPoint y="115"/>
                        </Array>
                    </mxGeometry>
                </mxCell>
                <mxCell id="44" value="__ipipe_init_early" style="rounded=0;whiteSpace=wrap;html=1;fontFamily=Courier New;fontSize=16;fontStyle=1;container=0;fillColor=#1ba1e2;fontColor=#000000;strokeColor=#006EAF;labelBackgroundColor=none;" parent="93" vertex="1">
                    <mxGeometry x="40" y="150" width="240" height="30" as="geometry"/>
                </mxCell>
                <mxCell id="74" style="edgeStyle=none;html=1;exitX=0;exitY=1;exitDx=0;exitDy=0;entryX=0;entryY=0.5;entryDx=0;entryDy=0;fontFamily=Courier New;fontSize=16;fontStyle=1;fontColor=#000000;labelBackgroundColor=none;" parent="93" source="45" target="44" edge="1">
                    <mxGeometry relative="1" as="geometry">
                        <Array as="points">
                            <mxPoint y="165"/>
                        </Array>
                    </mxGeometry>
                </mxCell>
                <mxCell id="46" value="init_stage" style="rounded=0;whiteSpace=wrap;html=1;sketch=0;fontFamily=Courier New;fontSize=16;fillColor=#1ba1e2;fontStyle=1;container=0;fontColor=#000000;strokeColor=#006EAF;labelBackgroundColor=none;" parent="93" vertex="1">
                    <mxGeometry x="80" y="210" width="125" height="30" as="geometry"/>
                </mxCell>
                <mxCell id="53" style="edgeStyle=none;html=1;exitX=0;exitY=1;exitDx=0;exitDy=0;entryX=0;entryY=0.5;entryDx=0;entryDy=0;fontFamily=Courier New;fontSize=16;fontStyle=1;fontColor=#000000;labelBackgroundColor=none;" parent="93" source="44" target="46" edge="1">
                    <mxGeometry relative="1" as="geometry">
                        <Array as="points">
                            <mxPoint x="40" y="225"/>
                        </Array>
                    </mxGeometry>
                </mxCell>
            </root>
        </mxGraphModel>
    </diagram>
</mxfile>